<?xml version="1.0" encoding="UTF-8"?>
<svg id="Capa_1" data-name="Capa 1" xmlns="http://www.w3.org/2000/svg" viewBox="0 0 889.87 184.55">
  <defs>
    <style>
      .cls-1 {
        stroke-width: 0px;
      }
    </style>
  </defs>
  <path class="cls-1" d="m154.6,11.06c1.88-.47,3.55-.06,5.02,1.23,1.47,1.29,2.08,2.94,1.85,4.93-.24,2.94-1.38,5.81-3.44,8.63-2.06,2.82-4.26,5.52-6.61,8.1-3.17,3.41-6.49,6.67-9.95,9.78-3.47,3.11-7.08,6.2-10.83,9.25-2.47,1.76-4.52,4.05-6.17,6.87-5.64,8.93-10.89,18-15.77,27.22-4.87,9.22-9.6,18.59-14.18,28.1-2.94,6.34-5.81,12.66-8.63,18.94-2.82,6.28-5.46,12.71-7.93,19.29-1.29,3.41-2.53,6.84-3.7,10.31-1.18,3.46-2.17,7.08-2.99,10.83,0,.24-.03.41-.09.53-.06.12-.09.29-.09.53-.24,1.06.06,1.82.88,2.29.94.59,1.47,1.38,1.59,2.38.11,1-.12,1.85-.71,2.55-1.65,1.76-3.52,2.17-5.64,1.23-1.06-.47-1.94-1.21-2.64-2.2-.71-1-1.12-2.09-1.23-3.26-.12-1.53-.06-2.99.17-4.4.24-1.41.47-2.76.71-4.05.94-4.11,2.11-8.16,3.52-12.15,1.41-3.99,2.93-7.93,4.58-11.8,11.04-27.01,23.49-52.91,37.35-77.69-7.28,5.05-14.65,9.84-22.11,14.36-7.46,4.52-15.18,8.78-23.17,12.77-.94.59-1.94,1.09-2.99,1.5-1.06.41-2.06.91-2.99,1.5-.47.12-.88.47-1.23,1.06-2.58,4.58-5.11,9.19-7.58,13.83-2.47,4.64-4.99,9.31-7.58,14.01-.35.47-.29,1,.18,1.59,1.17,1.18,1.35,2.47.53,3.88-.71,1.41-1.41,2.85-2.11,4.32-.7,1.47-1.47,2.85-2.29,4.14-.94,1.41-1.91,2.79-2.91,4.14-1,1.35-1.97,2.73-2.91,4.14-.24.35-.82.88-1.76,1.59-1.41.82-2.82.65-4.23-.53-1.53-.94-2.17-2.29-1.94-4.05.12-.7.29-1.44.53-2.2.24-.76.47-1.5.7-2.2,1.41-3.41,2.97-6.72,4.67-9.95,1.7-3.23,3.37-6.49,5.02-9.78,1.64-3.05,3.32-6.08,5.02-9.07,1.7-2.99,3.32-6.08,4.84-9.25-3.88,1.65-7.78,3.11-11.72,4.4-3.94,1.29-8.02,2.41-12.24,3.35-2.7.59-5.78,1.06-9.25,1.41-3.46.35-6.55-.18-9.25-1.59-.94-.47-1.7-1.06-2.29-1.76-.59-.7-.76-1.52-.53-2.47.59-1.88,1.73-2.91,3.44-3.08,1.7-.18,3.2.21,4.49,1.14.24.12.59.18,1.06.18,4.11-.11,8.34-.76,12.68-1.94,5.28-1.29,10.33-2.88,15.15-4.76,4.81-1.88,9.63-3.93,14.45-6.17.35-.23.64-.53.88-.88,3.64-6.7,7.28-13.36,10.92-20,3.64-6.64,7.28-13.3,10.92-20,3.76-6.93,7.52-13.8,11.28-20.61,3.76-6.81,7.51-13.68,11.27-20.61.94-1.64,1.97-3.37,3.08-5.2,1.12-1.82,2.44-3.49,3.96-5.02,1.06-.82,2.23-.88,3.52-.18,1.52.7,2.35,1.76,2.47,3.17.12.94.06,1.76-.18,2.47-.24.71-.82,1.23-1.76,1.59-.24.12-.47.41-.7.88-3.41,6.34-6.81,12.6-10.22,18.76-3.41,6.17-6.81,12.36-10.22,18.59-3.76,6.93-7.46,13.74-11.1,20.44-3.64,6.7-7.34,13.45-11.1,20.26,8.1-4.23,16-8.75,23.69-13.56,7.69-4.82,15.24-9.87,22.64-15.15,1.53-1.17,3.05-2.32,4.58-3.44,1.53-1.12,3.05-2.26,4.58-3.44.35-.35.71-.71,1.06-1.06.35-.35.71-.76,1.06-1.23,2.7-4.11,5.46-8.16,8.28-12.16,2.82-3.99,5.75-7.87,8.81-11.63,1.06-1.17,2.14-2.47,3.26-3.88,1.12-1.41,2.32-2.79,3.61-4.14,1.29-1.35,2.64-2.55,4.05-3.61s2.93-1.82,4.58-2.29Z"/>
  <path class="cls-1" d="m142.27,81.53c1.41-.94,3.11-1,5.11-.18,1.88.7,4.46,1.47,7.75,2.29,3.29.82,8.04,1.18,14.27,1.06,3.64-.12,7.22-.5,10.75-1.15,3.52-.64,6.81-1.44,9.87-2.38,2.7,1.88,3.64,3.47,2.82,4.76-.82,1.29-2.53,2.41-5.11,3.35-2.94.94-6.31,1.62-10.13,2.03-3.82.41-7.84.68-12.07.79-2.82,0-5.9-.24-9.25-.71-3.35-.47-5.9-1.06-7.66-1.76-.24.94-.38,1.88-.44,2.82-.06.94-.21,1.88-.44,2.82-.59,2.35-1.41,4.76-2.47,7.22-1.06,2.47-2.38,4.82-3.96,7.05-1.59,2.23-3.35,4.17-5.28,5.81-1.94,1.65-4.02,2.7-6.25,3.17-3.41.7-5.99-.47-7.75-3.52-.94-1.53-1.35-3.32-1.23-5.37.12-2.05.47-4.14,1.06-6.25.59-2.11,1.32-4.17,2.2-6.17.88-2,1.73-3.82,2.55-5.46,3.29-6.11,7.22-11.57,11.8-16.38.94-.82,1.85-1.53,2.73-2.11.88-.59,1.85-.7,2.91-.35,1.41.59,2.17,1.47,2.29,2.64.12,1.29-.35,2.41-1.41,3.35-.47.35-.91.76-1.32,1.23-.41.47-.85.94-1.32,1.41Zm-13.92,29.77c.82-.35,1.76-1,2.82-1.94,1.06-.94,2.06-2.03,2.99-3.26.94-1.23,1.85-2.58,2.73-4.05.88-1.47,1.61-2.85,2.2-4.14,1.64-4.46,2.11-9.16,1.41-14.09-1.29,1.65-2.5,3.41-3.61,5.29-1.12,1.88-2.2,3.7-3.26,5.46-.71,1.18-1.44,2.58-2.2,4.23-.76,1.65-1.44,3.29-2.03,4.93-.59,1.65-1,3.14-1.23,4.49-.24,1.35-.18,2.38.17,3.08Z"/>
  <path class="cls-1" d="m219.96,85.23c-.94.94-1.82,1.79-2.64,2.55-.82.77-1.7,1.56-2.64,2.38-1.88,1.76-3.94,3.61-6.17,5.55-2.23,1.94-4.4,3.79-6.52,5.55-2.11,1.76-4.11,3.32-5.99,4.67-1.88,1.35-3.47,2.26-4.76,2.73-2.58,1.18-4.9,1.44-6.96.79-2.05-.64-3.2-2.49-3.44-5.55-.23-2,0-4.11.71-6.34.7-2.23,1.62-4.46,2.73-6.7,1.12-2.23,2.32-4.37,3.61-6.43,1.29-2.05,2.52-3.9,3.7-5.55.7-.94,1.59-1.53,2.64-1.76,1.06-.23,2,0,2.82.7.71.59,1.06,1.47,1.06,2.64s-.41,2.17-1.23,2.99c-.7.47-1.23,1.12-1.59,1.94-1.29,2-2.47,4.05-3.52,6.17-1.06,2.11-2,4.29-2.82,6.52-.59,1.53-.88,2.99-.88,4.4,1.41-.58,2.88-1.41,4.4-2.47,1.53-1.06,2.93-2.11,4.23-3.17,3.29-2.7,6.49-5.52,9.6-8.46,3.11-2.93,6.19-5.87,9.25-8.81,1.64-1.64,3.37-3.26,5.2-4.84,1.82-1.59,3.44-2.79,4.84-3.61,1.64-1.06,3.14-1.09,4.49-.09,1.35,1,1.91,2.38,1.67,4.14-.35,1.76-1,3.7-1.94,5.81-1.65,3.99-3.38,7.81-5.2,11.45-1.82,3.64-4.02,8.05-6.61,13.21,6.34-3.41,12.24-6.72,17.7-9.95,5.46-3.23,10.36-6.31,14.71-9.25.23-.11.79-.47,1.67-1.06.88-.59,1.79-1.17,2.73-1.76l3.88-2.47c1.76.24,2.91.68,3.44,1.32.53.65.76,1.32.71,2.03-.06.7-.35,1.41-.88,2.11-.53.71-1.03,1.18-1.5,1.41-.59.35-1.26.79-2.03,1.32-.77.53-1.5,1.06-2.2,1.59-.71.53-1.32.97-1.85,1.32-.53.35-.85.59-.97.71-6.34,4.11-12.72,8.05-19.12,11.8-6.4,3.76-13.12,7.64-20.17,11.63-2.47,1.53-4.47,3.52-5.99,5.99-2.82,4.82-5.81,9.46-8.98,13.92-3.17,4.46-6.64,8.81-10.39,13.04-1.64,2.11-3.58,4.23-5.81,6.34-2.23,2.11-4.61,4.08-7.14,5.9-2.52,1.82-5.17,3.35-7.93,4.58-2.76,1.23-5.55,1.96-8.37,2.2-3.41.35-6.52.03-9.34-.97-2.82-1-4.7-3.44-5.64-7.31-.59-3.29-.47-6.43.35-9.43.82-2.99,2.11-5.7,3.88-8.1,1.76-2.41,3.91-4.49,6.43-6.26,2.53-1.76,5.2-3.17,8.02-4.23,2.23-.7,4.46-1.41,6.7-2.11,2.23-.71,4.46-1.41,6.69-2.11,4.93-1.76,9.72-3.82,14.36-6.17,4.64-2.35,9.19-4.87,13.65-7.57l.71-.71c.7-1.29,1.7-3.17,2.99-5.64,1.29-2.47,2.64-5.11,4.05-7.93s2.79-5.55,4.14-8.19c1.35-2.64,2.49-4.78,3.44-6.43Zm-22.73,41.22c-2.7,1.65-5.61,3.11-8.72,4.4-3.11,1.29-6.19,2.47-9.25,3.52-3.64,1.29-7.34,2.44-11.1,3.44-3.76,1-7.16,2.55-10.22,4.67-1.29.82-2.47,2.26-3.52,4.32-1.06,2.05-1.79,4.14-2.2,6.25-.41,2.11-.32,3.99.27,5.64.59,1.64,1.94,2.52,4.05,2.64,1.88.12,3.82-.17,5.81-.88,2-.71,3.96-1.62,5.9-2.73,1.94-1.12,3.79-2.41,5.55-3.88,1.76-1.47,3.29-2.85,4.58-4.14,3.06-2.7,5.81-5.61,8.28-8.72,2.47-3.11,4.87-6.32,7.22-9.6.59-.82,1.15-1.64,1.67-2.47.53-.82,1.08-1.64,1.67-2.47Z"/>
  <path class="cls-1" d="m355.61,81.35c2-1.29,3.67-2.41,5.02-3.35,1.35-.94,2.79-1.23,4.32-.88,1.29.24,2.29.91,2.99,2.03.7,1.12,1,2.32.88,3.61,0,.82-.24,2.06-.7,3.7-.47,1.65-1.03,3.47-1.67,5.46-.65,2-1.29,4.05-1.94,6.16-.65,2.11-1.21,4.05-1.67,5.82-.47,1.88-.59,3.35-.35,4.4.23,1.06,1.17,1.47,2.82,1.23.82,0,2.05-.35,3.7-1.06,1.64-.7,3.49-1.61,5.55-2.73,2.05-1.12,4.11-2.35,6.17-3.7,2.05-1.35,3.96-2.55,5.72-3.61,4.11-2.47,8.13-4.96,12.07-7.49,3.93-2.52,7.95-5.02,12.07-7.49.47-.23,1.17-.7,2.11-1.41.47-.35.94-.64,1.41-.88,1.64.24,2.79.68,3.44,1.32.64.65.97,1.38.97,2.2s-.26,1.62-.79,2.38c-.53.77-1.21,1.38-2.03,1.85-5.4,3.41-10.81,6.78-16.21,10.13-5.4,3.35-10.81,6.73-16.21,10.13-1.76,1.06-3.61,2.11-5.55,3.17-1.94,1.06-3.88,1.94-5.81,2.64-1.94.7-3.79,1.23-5.55,1.59s-3.29.35-4.58,0c-2.11-.35-3.67-1.15-4.67-2.38-1-1.23-1.65-2.7-1.94-4.4-.29-1.7-.33-3.44-.09-5.2.23-1.76.59-3.35,1.06-4.76.59-2,1.2-4.05,1.85-6.17.64-2.11,1.26-4.17,1.85-6.16-1.76,1.65-3.64,3.17-5.64,4.58-2.94,2.35-5.61,4.49-8.02,6.43-2.41,1.94-5.08,4.08-8.02,6.43-1.53,1.29-3.38,2.58-5.55,3.88-2.17,1.29-4.2,1.88-6.08,1.76-1.76-.12-3.11-.79-4.05-2.03-.94-1.23-1.29-2.85-1.06-4.84.23-1.64.62-3.29,1.14-4.93.53-1.64,1.09-3.29,1.67-4.93,1.88-4.7,3.85-9.25,5.9-13.65,2.05-4.4,4.2-8.84,6.43-13.3.82-1.64,1.85-3.73,3.08-6.26,1.23-2.52,2.49-5.11,3.79-7.75,1.29-2.64,2.49-5.17,3.61-7.58,1.11-2.41,1.91-4.37,2.38-5.9-2.47,2.11-5.02,4.44-7.66,6.96-2.64,2.53-5.14,5.08-7.49,7.66-7.4,8.1-14.56,16.36-21.49,24.75-6.93,8.4-13.56,17-19.91,25.81-.94,1.41-2.03,2.88-3.26,4.4-1.23,1.53-2.32,2.58-3.26,3.17-1.41.7-2.82.65-4.23-.18-1.41-.94-2.03-2.03-1.85-3.26s.62-2.61,1.32-4.14c1.41-3.05,2.94-6.02,4.58-8.9,1.65-2.88,3.29-5.78,4.93-8.72,1.88-3.41,3.79-6.75,5.73-10.04,1.94-3.29,3.9-6.63,5.9-10.04.35-.59.79-1.12,1.32-1.59.53-.47,1.2-.64,2.03-.53,1.17.12,2.05.65,2.64,1.59.59.94.64,1.94.18,2.99-.24.71-.56,1.5-.97,2.38-.41.88-.91,1.85-1.5,2.91,5.17-5.87,10.16-11.68,14.97-17.44,4.81-5.75,9.98-11.27,15.5-16.56,2.58-2.47,4.99-4.64,7.22-6.52,2.23-1.88,4.46-3.17,6.69-3.88,2.23-.71,4.05-.41,5.46.88,1.41,1.29,2,3.06,1.76,5.28-.24,1.65-.65,3.26-1.23,4.85-.59,1.59-1.23,3.14-1.94,4.67-1.76,3.88-3.58,7.72-5.46,11.54-1.88,3.82-3.76,7.66-5.64,11.54-1.53,3.06-3.08,6.29-4.67,9.69-1.59,3.41-3.06,6.64-4.4,9.69-1.35,3.06-2.53,5.81-3.52,8.28-1,2.47-1.62,4.29-1.85,5.46,1.29-.71,2.96-1.88,5.02-3.52,2.05-1.64,4.32-3.46,6.78-5.46,2.47-2,4.96-4.02,7.49-6.08,2.52-2.05,4.85-3.96,6.96-5.72Z"/>
  <path class="cls-1" d="m412.16,93.51c-1.29,1.53-2.73,3.47-4.32,5.81-1.59,2.35-2.99,4.79-4.23,7.31-1.23,2.53-2.2,5.08-2.91,7.66-.7,2.58-.76,4.93-.18,7.05.59,1.76,1.62,2.73,3.08,2.91,1.47.18,3.06-.03,4.76-.62,1.7-.59,3.38-1.32,5.02-2.2,1.64-.88,2.88-1.61,3.7-2.2,3.05-1.88,6.08-3.9,9.07-6.08,2.99-2.17,5.9-4.37,8.72-6.61,4.34-3.52,8.63-7.05,12.86-10.57s8.51-7.05,12.86-10.57c.24-.23.65-.59,1.23-1.06.59-.47,1.17-.94,1.76-1.41.59-.47,1.23-1.06,1.94-1.76,1.64.24,2.85.65,3.61,1.23.76.59,1.15,1.32,1.15,2.2s-.3,1.76-.88,2.64c-.59.88-1.29,1.67-2.11,2.38-6.7,5.29-13.19,10.57-19.47,15.86-6.29,5.29-12.77,10.39-19.47,15.33-1.88,1.41-3.94,2.79-6.17,4.14-2.23,1.35-4.49,2.55-6.78,3.61-2.29,1.06-4.61,1.88-6.96,2.47-2.35.59-4.58.71-6.7.35-2.35-.47-4.26-1.53-5.72-3.17-1.47-1.64-2.44-3.7-2.91-6.17-.59-3.64-.26-7.49.97-11.54,1.23-4.05,2.99-7.96,5.29-11.72,2.29-3.76,4.84-7.28,7.66-10.57,2.82-3.29,5.52-5.99,8.1-8.1,2-1.64,4.11-3.02,6.34-4.14,2.23-1.12,4.52-1.5,6.87-1.15,3.64.71,5.64,2.94,5.99,6.7.12,1.65-.12,3.26-.7,4.84-.59,1.59-1.41,3.06-2.47,4.4-1.06,1.35-2.23,2.58-3.52,3.7-1.29,1.12-2.58,2.09-3.88,2.91-.94.59-2.17,1.12-3.7,1.59-2,.47-3.7.15-5.11-.97-1.41-1.12-2.35-2.61-2.82-4.49Zm7.4-2.47c1.53-.7,2.99-1.85,4.4-3.44s2.35-3.02,2.82-4.32v-1.23c-.59.24-1.12.44-1.59.62-.47.18-.94.38-1.41.62-.94,1.06-1.82,2.29-2.64,3.7-.82,1.41-1.35,2.76-1.59,4.05Z"/>
  <path class="cls-1" d="m507.29,86.99c.23,2.11.88,3.99,1.94,5.64,2,2.82,4.08,5.46,6.26,7.93,2.17,2.47,4.08,5.34,5.72,8.63.82,1.29,1.29,2.94,1.41,4.93.12,2,.06,3.82-.18,5.46,2.23-1.41,4.37-2.79,6.43-4.14,2.05-1.35,4.14-2.82,6.25-4.4,2.11-1.59,4.37-3.37,6.78-5.37,2.41-2,5.14-4.29,8.19-6.87,2-1.64,4.05-3.49,6.16-5.55,2.11-2.05,4.05-3.96,5.81-5.72,2.11-2.11,4.17-4.23,6.17-6.34,2.47.35,3.85,1.18,4.14,2.47.29,1.29-.26,2.82-1.67,4.58-1.18,1.53-2.94,3.47-5.29,5.81-2.35,2.35-5.02,4.84-8.02,7.49-2.99,2.64-6.17,5.34-9.51,8.1-3.35,2.76-6.61,5.37-9.78,7.84-3.17,2.47-6.14,4.64-8.9,6.52-2.76,1.88-5.02,3.29-6.78,4.23-.47.24-.76.47-.88.7-1.29,2.7-2.85,5.2-4.67,7.49-1.82,2.29-3.79,4.49-5.9,6.61-3.99,3.64-8.19,6.87-12.6,9.69s-9.07,5.22-14.01,7.22c-1.76.59-3.55,1.12-5.37,1.59-1.82.47-3.61.47-5.37,0-1.29-.47-2.29-1.29-2.99-2.47-.71-1.18-.82-2.47-.35-3.88.35-1.41,1-2.73,1.94-3.96.94-1.23,2.06-2.44,3.35-3.61,1.29-1.18,2.64-2.23,4.05-3.17,1.41-.94,2.7-1.82,3.88-2.64,3.99-2.7,8.08-5.23,12.24-7.58,4.17-2.35,8.37-4.7,12.6-7.05,1.17-.71,2.2-1.29,3.08-1.76.88-.47,1.56-.82,2.03-1.06.59-1.29,1.14-3.11,1.67-5.46.53-2.35.44-4.29-.26-5.81-1.65-3.05-3.58-5.84-5.81-8.37-2.23-2.52-4.29-5.2-6.17-8.02-1.88-2.93-2.82-5.84-2.82-8.72s.59-5.61,1.76-8.19c1.17-2.58,2.82-4.99,4.93-7.22,2.11-2.23,4.34-4.23,6.7-5.99,2.82-2,5.99-3.85,9.51-5.55,3.52-1.7,6.81-2.32,9.87-1.85,2.35.24,3.99,1.18,4.93,2.82.94,1.65,1.12,3.52.53,5.64-1.53,4.46-3.61,8.31-6.26,11.54-2.64,3.23-5.26,6.55-7.84,9.95-.59.7-1.26,1.17-2.03,1.41-.77.24-1.56.12-2.38-.35-1.65-1.06-2.06-2.52-1.23-4.4.23-.59.53-1.09.88-1.5.35-.41.7-.91,1.06-1.5,1.76-2.58,3.7-5.2,5.81-7.84,2.11-2.64,3.64-5.37,4.58-8.19-2.11.12-4.52.82-7.22,2.11-2.7,1.29-5.29,2.91-7.75,4.85-2.47,1.94-4.52,4.08-6.17,6.43-1.65,2.35-2.47,4.64-2.47,6.87Zm-.71,49.68c-4.46,2.47-8.87,4.99-13.21,7.58-4.34,2.58-8.46,5.58-12.33,8.98,9.4-3.64,17.91-9.16,25.54-16.56Z"/>
  <path class="cls-1" d="m565.6,102.49c.82,0,1.94-.2,3.35-.62,1.41-.41,2.91-.94,4.49-1.59,1.59-.64,3.14-1.32,4.67-2.03,1.53-.7,2.76-1.29,3.7-1.76,2-.94,4.29-2.05,6.87-3.35,2.58-1.29,5.22-2.58,7.93-3.88,2.7-1.29,5.34-2.58,7.93-3.88,2.58-1.29,4.87-2.41,6.87-3.35.11-.11.29-.2.53-.26.23-.06.47-.15.71-.26l.7-.35c1.53.24,2.61.71,3.26,1.41.64.71.97,1.44.97,2.2s-.26,1.5-.79,2.2c-.53.71-1.14,1.23-1.85,1.59-4.93,2.47-10.22,5.08-15.86,7.84-5.64,2.76-10.92,5.37-15.86,7.84-.94.35-2.17.88-3.7,1.59-1.53.71-3.2,1.38-5.02,2.03-1.82.65-3.61,1.15-5.37,1.5-1.76.35-3.35.35-4.76,0-2-.47-3.52-1.5-4.58-3.08-1.06-1.59-1.47-3.37-1.23-5.37.24-1.88.88-3.93,1.94-6.17,1.06-2.23,2.06-4.17,2.99-5.81,1.06-1.76,1.94-3.23,2.64-4.4.71-1.17,1.7-2.64,2.99-4.4.82-1.29,1.88-1.82,3.17-1.59,1.17.35,1.97.79,2.38,1.32.41.53.62,1.09.62,1.67s-.18,1.23-.53,1.94c-.35.71-.71,1.29-1.06,1.76-1.29,2.11-2.53,4.23-3.7,6.34-1.18,2.11-2.23,4.35-3.17,6.69-.59,1.29-1,2.7-1.23,4.23Zm16.38-36.82c.11,1.17-.21,2.14-.97,2.91s-1.62,1.15-2.55,1.15c-1.76-.23-2.82-1.29-3.17-3.17-.12-.94.03-1.79.44-2.55.41-.76,1.03-1.26,1.85-1.5,1.06-.47,2.05-.38,2.99.26.94.65,1.41,1.62,1.41,2.91Z"/>
  <path class="cls-1" d="m611.41,93.51c-1.29,1.53-2.73,3.47-4.32,5.81-1.59,2.35-2.99,4.79-4.23,7.31-1.23,2.53-2.2,5.08-2.91,7.66-.7,2.58-.76,4.93-.18,7.05.59,1.76,1.62,2.73,3.08,2.91,1.47.18,3.06-.03,4.76-.62,1.7-.59,3.38-1.32,5.02-2.2,1.64-.88,2.88-1.61,3.7-2.2,3.05-1.88,6.08-3.9,9.07-6.08,2.99-2.17,5.9-4.37,8.72-6.61,4.34-3.52,8.63-7.05,12.86-10.57s8.51-7.05,12.86-10.57c.24-.23.65-.59,1.23-1.06.59-.47,1.17-.94,1.76-1.41.59-.47,1.23-1.06,1.94-1.76,1.64.24,2.85.65,3.61,1.23.76.59,1.15,1.32,1.15,2.2s-.3,1.76-.88,2.64c-.59.88-1.29,1.67-2.11,2.38-6.7,5.29-13.19,10.57-19.47,15.86-6.29,5.29-12.77,10.39-19.47,15.33-1.88,1.41-3.94,2.79-6.17,4.14-2.23,1.35-4.49,2.55-6.78,3.61-2.29,1.06-4.61,1.88-6.96,2.47-2.35.59-4.58.71-6.7.35-2.35-.47-4.26-1.53-5.72-3.17-1.47-1.64-2.44-3.7-2.91-6.17-.59-3.64-.26-7.49.97-11.54,1.23-4.05,2.99-7.96,5.29-11.72,2.29-3.76,4.84-7.28,7.66-10.57,2.82-3.29,5.52-5.99,8.1-8.1,2-1.64,4.11-3.02,6.34-4.14,2.23-1.12,4.52-1.5,6.87-1.15,3.64.71,5.64,2.94,5.99,6.7.12,1.65-.12,3.26-.7,4.84-.59,1.59-1.41,3.06-2.47,4.4-1.06,1.35-2.23,2.58-3.52,3.7-1.29,1.12-2.58,2.09-3.88,2.91-.94.59-2.17,1.12-3.7,1.59-2,.47-3.7.15-5.11-.97-1.41-1.12-2.35-2.61-2.82-4.49Zm7.4-2.47c1.53-.7,2.99-1.85,4.4-3.44s2.35-3.02,2.82-4.32v-1.23c-.59.24-1.12.44-1.59.62-.47.18-.94.38-1.41.62-.94,1.06-1.82,2.29-2.64,3.7-.82,1.41-1.35,2.76-1.59,4.05Z"/>
  <path class="cls-1" d="m736.49,88.22c-.82.71-1.79,1.59-2.91,2.64-1.12,1.06-2.09,1.94-2.91,2.64-2,1.76-4.23,3.73-6.69,5.9-2.47,2.17-4.99,4.32-7.58,6.43-2.58,2.11-5.2,4.05-7.84,5.81-2.64,1.76-5.14,3.11-7.49,4.05-1.53.59-3.14.97-4.84,1.15-1.7.18-3.38.09-5.02-.26-2-.35-3.61-1.23-4.84-2.64s-1.97-3.11-2.2-5.11c-.24-1.64-.27-3.23-.09-4.76.18-1.52.38-3.11.62-4.76.35-1.88.76-3.85,1.23-5.9.47-2.05.94-4.26,1.41-6.61-.59.47-1.18.97-1.76,1.5-.59.53-1.12,1.09-1.59,1.67-4.35,4.11-8.52,8.28-12.51,12.51-3.99,4.23-7.98,8.52-11.98,12.86-.71.7-1.47,1.59-2.29,2.64-.82,1.06-1.73,1.97-2.73,2.73-1,.76-2.03,1.29-3.08,1.58-1.06.3-2.17.09-3.35-.62-1.29-.94-1.85-2.14-1.67-3.61.18-1.47.74-3.2,1.67-5.2,2-4.46,4.08-8.81,6.26-13.04,2.17-4.23,4.43-8.46,6.78-12.68,1.17-2,2.32-3.96,3.44-5.9,1.11-1.94,2.26-3.9,3.44-5.9.23-.59.53-1.23.88-1.94.35-.7.76-1.35,1.23-1.94.47-.59,1-1.03,1.59-1.32.59-.29,1.29-.26,2.11.09.94.35,1.56.85,1.85,1.5.29.65.41,1.35.35,2.11-.06.77-.24,1.53-.53,2.29-.29.77-.62,1.44-.97,2.03-2.23,4.11-4.4,8.02-6.52,11.72-2.11,3.7-4.05,7.31-5.81,10.83.82-.82,1.97-1.97,3.44-3.44,1.47-1.47,3.08-3.05,4.84-4.76,1.76-1.7,3.55-3.44,5.37-5.2,1.82-1.76,3.44-3.35,4.84-4.76.82-.82,2.14-1.91,3.96-3.26,1.82-1.35,3.61-1.91,5.37-1.67,1.41.24,2.47.79,3.17,1.67.7.88,1.17,1.88,1.41,2.99.23,1.12.29,2.29.18,3.52-.12,1.23-.24,2.26-.35,3.08-.35,2.11-.79,4.32-1.32,6.61-.53,2.29-.94,4.43-1.23,6.43-.29,2-.41,3.67-.35,5.02.06,1.35.56,2.2,1.5,2.55,1.64.47,3.61.26,5.9-.62,2.29-.88,5.14-2.49,8.54-4.85,2.11-1.64,4.7-3.73,7.75-6.25,3.05-2.52,5.99-5.02,8.81-7.49,3.29-2.93,6.69-5.99,10.22-9.16.7,0,1.44.15,2.2.44.76.3,1.35.74,1.76,1.32.41.59.53,1.32.35,2.2-.18.88-.85,1.91-2.03,3.08Z"/>
  <path class="cls-1" d="m753.58,49.64c-7.4.24-14.51.47-21.32.71-6.81.24-13.56.65-20.26,1.23-4.11.24-8.25.53-12.42.88-4.17.35-8.37.47-12.6.35h-1.85c-.64,0-1.26-.06-1.85-.18-2.35-.35-3.41-1.64-3.17-3.88.24-1.88,1.53-2.82,3.88-2.82,1.29,0,2.53-.03,3.7-.09,1.18-.06,2.41-.15,3.7-.27,7.17-.59,14.18-1.14,21.05-1.67,6.87-.53,13.77-.91,20.7-1.15,1.64-.11,3.76-.23,6.34-.35,2.58-.11,5.17-.2,7.75-.26,2.58-.06,4.87-.15,6.87-.26,2-.12,3.29-.23,3.88-.35.94-1.53,1.91-3.08,2.91-4.67,1-1.59,1.97-3.14,2.91-4.67.59-.94,1.26-1.67,2.03-2.2.76-.53,1.85-.62,3.26-.26,1.06.24,1.61.77,1.67,1.59.06.82-.09,1.65-.44,2.47-.59,1.53-1.17,2.91-1.76,4.14-.59,1.23-1.18,2.5-1.76,3.79,9.75-.12,19.23-.2,28.45-.26,9.22-.06,18.41-.09,27.57-.09,4.46-.12,8.92-.15,13.39-.09,4.46.06,8.92.21,13.39.44,2.93,0,5.73.12,8.37.35,2.64.24,4.93.59,6.87,1.06,1.94.47,3.46,1.09,4.58,1.85,1.12.77,1.67,1.73,1.67,2.91,0,.94-.41,1.76-1.23,2.47-.82.71-1.7.94-2.64.71-7.28-1.06-14.62-1.73-22.02-2.03-7.4-.29-14.8-.44-22.2-.44s-14.83.09-22.29.27c-7.46.17-14.89.26-22.29.26-2.47,0-4.93.03-7.4.09-2.47.06-4.93.09-7.4.09-.71,0-1.29.35-1.76,1.06-4.46,7.28-8.9,14.51-13.3,21.67-4.4,7.17-8.78,14.45-13.13,21.85-1.64,2.7-3.73,6.2-6.25,10.48-2.52,4.29-5.28,9.02-8.28,14.18-2.99,5.17-6.14,10.54-9.43,16.12-3.29,5.58-6.43,10.95-9.43,16.12-2.99,5.17-5.75,9.92-8.28,14.27-2.52,4.34-4.55,7.87-6.08,10.57-.47.82-1.03,1.76-1.67,2.82-.64,1.06-1.32,2-2.03,2.82-.7.82-1.47,1.44-2.29,1.85-.82.41-1.7.38-2.64-.09-.71-.47-1.12-1.12-1.23-1.94-.11-.82-.06-1.7.18-2.64.24-.94.62-1.88,1.15-2.82.53-.94.97-1.7,1.32-2.29,1.41-2.47,3.32-5.79,5.72-9.95,2.41-4.17,5.08-8.78,8.02-13.83,2.94-5.05,5.99-10.28,9.16-15.68s6.2-10.63,9.07-15.68c2.88-5.05,5.55-9.69,8.02-13.92,2.47-4.23,4.47-7.58,5.99-10.04,4.47-7.4,8.98-14.8,13.57-22.2s9.1-14.86,13.57-22.37Z"/>
  <path class="cls-1" d="m769.08,81.53c1.41-.94,3.11-1,5.11-.18,1.88.7,4.46,1.47,7.75,2.29,3.29.82,8.04,1.18,14.27,1.06,3.64-.12,7.22-.5,10.75-1.15,3.52-.64,6.81-1.44,9.87-2.38,2.7,1.88,3.64,3.47,2.82,4.76-.82,1.29-2.53,2.41-5.11,3.35-2.94.94-6.31,1.62-10.13,2.03-3.82.41-7.84.68-12.07.79-2.82,0-5.9-.24-9.25-.71-3.35-.47-5.9-1.06-7.66-1.76-.24.94-.38,1.88-.44,2.82-.06.94-.21,1.88-.44,2.82-.59,2.35-1.41,4.76-2.47,7.22-1.06,2.47-2.38,4.82-3.96,7.05-1.59,2.23-3.35,4.17-5.28,5.81-1.94,1.65-4.02,2.7-6.25,3.17-3.41.7-5.99-.47-7.75-3.52-.94-1.53-1.35-3.32-1.23-5.37.12-2.05.47-4.14,1.06-6.25.59-2.11,1.32-4.17,2.2-6.17.88-2,1.73-3.82,2.55-5.46,3.29-6.11,7.22-11.57,11.8-16.38.94-.82,1.85-1.53,2.73-2.11.88-.59,1.85-.7,2.91-.35,1.41.59,2.17,1.47,2.29,2.64.12,1.29-.35,2.41-1.41,3.35-.47.35-.91.76-1.32,1.23-.41.47-.85.94-1.32,1.41Zm-13.92,29.77c.82-.35,1.76-1,2.82-1.94,1.06-.94,2.06-2.03,2.99-3.26.94-1.23,1.85-2.58,2.73-4.05.88-1.47,1.61-2.85,2.2-4.14,1.64-4.46,2.11-9.16,1.41-14.09-1.29,1.65-2.5,3.41-3.61,5.29-1.12,1.88-2.2,3.7-3.26,5.46-.71,1.18-1.44,2.58-2.2,4.23-.76,1.65-1.44,3.29-2.03,4.93-.59,1.65-1,3.14-1.23,4.49-.24,1.35-.18,2.38.17,3.08Z"/>
  <path class="cls-1" d="m825.98,121.32c0-4.44,3-7.55,7.19-7.55s7.07,3.12,7.07,7.55-2.76,7.55-7.19,7.55c-4.2,0-7.07-3.24-7.07-7.55Z"/>
  <path class="cls-1" d="m850.79,121.32c0-4.44,3-7.55,7.19-7.55s7.07,3.12,7.07,7.55-2.76,7.55-7.19,7.55c-4.2,0-7.07-3.24-7.07-7.55Z"/>
  <path class="cls-1" d="m875.61,121.32c0-4.44,3-7.55,7.19-7.55s7.07,3.12,7.07,7.55-2.76,7.55-7.19,7.55c-4.2,0-7.07-3.24-7.07-7.55Z"/>
</svg>